REM DIRINDEX 1\2,1\3,1\4
REM DIRNAME folder01,folder02,folder03,folder04
TITLE ""
FILE "DISC3Track39.mp3" MP3
  TRACK 01 AUDIO
    TITLE "0:"
    INDEX 01 00:00:00
  TRACK 02 AUDIO
    TITLE "4:cjc105_6251"
    INDEX 01 00:00:11
  TRACK 03 AUDIO
    TITLE "0:"
    INDEX 01 00:02:63
  TRACK 04 AUDIO
    TITLE "2:cjc105_6252"
    INDEX 01 00:03:33
  TRACK 05 AUDIO
    TITLE "3:cjc105_6253"
    INDEX 01 00:04:52
  TRACK 06 AUDIO
    TITLE "0:"
    INDEX 01 00:05:71
  TRACK 07 AUDIO
    TITLE "2:cjc105_6254"
    INDEX 01 00:06:18
  TRACK 08 AUDIO
    TITLE "3:cjc105_6255"
    INDEX 01 00:07:54
  TRACK 09 AUDIO
    TITLE "0:"
    INDEX 01 00:09:14
  TRACK 10 AUDIO
    TITLE "2:cjc105_6256"
    INDEX 01 00:09:32
  TRACK 11 AUDIO
    TITLE "3:cjc105_6257"
    INDEX 01 00:11:05
  TRACK 12 AUDIO
    TITLE "0:"
    INDEX 01 00:12:14
  TRACK 13 AUDIO
    TITLE "2:cjc105_6258"
    INDEX 01 00:12:34
  TRACK 14 AUDIO
    TITLE "3:cjc105_6259"
    INDEX 01 00:14:23
  TRACK 15 AUDIO
    TITLE "0:"
    INDEX 01 00:15:42
  TRACK 16 AUDIO
    TITLE "2:cjc105_6260"
    INDEX 01 00:15:64
  TRACK 17 AUDIO
    TITLE "3:cjc105_6261"
    INDEX 01 00:19:20
  TRACK 18 AUDIO
    TITLE "0:"
    INDEX 01 00:20:26
  TRACK 19 AUDIO
    TITLE "2:cjc105_6262"
    INDEX 01 00:20:43
  TRACK 20 AUDIO
    TITLE "3:cjc105_6263"
    INDEX 01 00:22:17
  TRACK 21 AUDIO
    TITLE "0:"
    INDEX 01 00:23:38
  TRACK 22 AUDIO
    TITLE "2:cjc105_6264"
    INDEX 01 00:23:53
  TRACK 23 AUDIO
    TITLE "3:cjc105_6265"
    INDEX 01 00:25:05
  TRACK 24 AUDIO
    TITLE "0:"
    INDEX 01 00:26:32
  TRACK 25 AUDIO
    TITLE "2:cjc105_6266"
    INDEX 01 00:26:48
  TRACK 26 AUDIO
    TITLE "3:cjc105_6267"
    INDEX 01 00:28:23
  TRACK 27 AUDIO
    TITLE "0:"
    INDEX 01 00:29:62
  TRACK 28 AUDIO
    TITLE "2:cjc105_6268"
    INDEX 01 00:30:12
  TRACK 29 AUDIO
    TITLE "3:cjc105_6269"
    INDEX 01 00:31:71
  TRACK 30 AUDIO
    TITLE "0:"
    INDEX 01 00:33:26
  TRACK 31 AUDIO
    TITLE "2:cjc105_6270"
    INDEX 01 00:33:52
  TRACK 32 AUDIO
    TITLE "3:cjc105_6271"
    INDEX 01 00:34:61
  TRACK 33 AUDIO
    TITLE "0:"
    INDEX 01 00:36:29
  TRACK 34 AUDIO
    TITLE "2:cjc105_6272"
    INDEX 01 00:36:44
  TRACK 35 AUDIO
    TITLE "3:cjc105_6273"
    INDEX 01 00:38:16
  TRACK 36 AUDIO
    TITLE "0:"
    INDEX 01 00:39:72
  TRACK 37 AUDIO
    TITLE "2:cjc105_6274"
    INDEX 01 00:40:21
  TRACK 38 AUDIO
    TITLE "3:cjc105_6275"
    INDEX 01 00:41:53
  TRACK 39 AUDIO
    TITLE "0:"
    INDEX 01 00:42:74
  TRACK 40 AUDIO
    TITLE "2:cjc105_6276"
    INDEX 01 00:43:21
  TRACK 41 AUDIO
    TITLE "3:cjc105_6277"
    INDEX 01 00:44:26
  TRACK 42 AUDIO
    TITLE "0:"
    INDEX 01 00:45:47
  TRACK 43 AUDIO
    TITLE "2:cjc105_6278"
    INDEX 01 00:45:63
  TRACK 44 AUDIO
    TITLE "3:cjc105_6279"
    INDEX 01 00:47:13
  TRACK 45 AUDIO
    TITLE "0:"
    INDEX 01 00:48:24
  TRACK 46 AUDIO
    TITLE "2:cjc105_6280"
    INDEX 01 00:48:48
  TRACK 47 AUDIO
    TITLE "3:cjc105_6281"
    INDEX 01 00:49:51
  TRACK 48 AUDIO
    TITLE "0:"
    INDEX 01 00:50:74
  TRACK 49 AUDIO
    TITLE "2:cjc105_6282"
    INDEX 01 00:51:22
  TRACK 50 AUDIO
    TITLE "3:cjc105_6283"
    INDEX 01 00:52:12
  TRACK 51 AUDIO
    TITLE "0:"
    INDEX 01 00:53:02
  TRACK 52 AUDIO
    TITLE "2:cjc105_6284"
    INDEX 01 00:53:23
  TRACK 53 AUDIO
    TITLE "3:cjc105_6285"
    INDEX 01 00:54:40
  TRACK 54 AUDIO
    TITLE "0:"
    INDEX 01 00:55:53
  TRACK 55 AUDIO
    TITLE "2:cjc105_6286"
    INDEX 01 00:56:02
  TRACK 56 AUDIO
    TITLE "3:cjc105_6287"
    INDEX 01 00:57:33
  TRACK 57 AUDIO
    TITLE "0:"
    INDEX 01 00:58:50
  TRACK 58 AUDIO
    TITLE "2:cjc105_6288"
    INDEX 01 00:58:73
  TRACK 59 AUDIO
    TITLE "3:cjc105_6289"
    INDEX 01 01:00:64
  TRACK 60 AUDIO
    TITLE "0:"
    INDEX 01 01:02:26
  TRACK 61 AUDIO
    TITLE "2:cjc105_6290"
    INDEX 01 01:02:44
  TRACK 62 AUDIO
    TITLE "3:cjc105_6291"
    INDEX 01 01:03:61
  TRACK 63 AUDIO
    TITLE "0:"
    INDEX 01 01:05:03
  TRACK 64 AUDIO
    TITLE "2:cjc105_6292"
    INDEX 01 01:05:30
  TRACK 65 AUDIO
    TITLE "3:cjc105_6293"
    INDEX 01 01:06:32
  TRACK 66 AUDIO
    TITLE "0:"
    INDEX 01 01:07:29
  TRACK 67 AUDIO
    TITLE "2:cjc105_6294"
    INDEX 01 01:07:53
  TRACK 68 AUDIO
    TITLE "3:cjc105_6295"
    INDEX 01 01:08:70
  TRACK 69 AUDIO
    TITLE "0:"
    INDEX 01 01:10:00
  TRACK 70 AUDIO
    TITLE "2:cjc105_6296"
    INDEX 01 01:10:22
  TRACK 71 AUDIO
    TITLE "3:cjc105_6297"
    INDEX 01 01:11:33
  TRACK 72 AUDIO
    TITLE "0:"
    INDEX 01 01:12:50
  TRACK 73 AUDIO
    TITLE "2:cjc105_6298"
    INDEX 01 01:13:00
  TRACK 74 AUDIO
    TITLE "3:cjc105_6299"
    INDEX 01 01:14:57
  TRACK 75 AUDIO
    TITLE "0:"
    INDEX 01 01:16:12
  TRACK 76 AUDIO
    TITLE "2:cjc105_6300"
    INDEX 01 01:16:32
  TRACK 77 AUDIO
    TITLE "3:cjc105_6301"
    INDEX 01 01:18:49
  TRACK 78 AUDIO
    TITLE "0:"
    INDEX 01 01:20:20
  TRACK 79 AUDIO
    TITLE "2:cjc105_6302"
    INDEX 01 01:20:44
  TRACK 80 AUDIO
    TITLE "3:cjc105_6303"
    INDEX 01 01:21:72
  TRACK 81 AUDIO
    TITLE "0:"
    INDEX 01 01:23:18
  TRACK 82 AUDIO
    TITLE "2:cjc105_6304"
    INDEX 01 01:23:38
  TRACK 83 AUDIO
    TITLE "3:cjc105_6305"
    INDEX 01 01:25:13
  TRACK 84 AUDIO
    TITLE "0:"
    INDEX 01 01:26:29
  TRACK 85 AUDIO
    TITLE "2:cjc105_6306"
    INDEX 01 01:26:48
  TRACK 86 AUDIO
    TITLE "3:cjc105_6307"
    INDEX 01 01:28:16
  TRACK 87 AUDIO
    TITLE "0:"
    INDEX 01 01:29:27
  TRACK 88 AUDIO
    TITLE "2:cjc105_6308"
    INDEX 01 01:29:43
  TRACK 89 AUDIO
    TITLE "3:cjc105_6309"
    INDEX 01 01:31:22
  TRACK 90 AUDIO
    TITLE "0:"
    INDEX 01 01:32:51
  TRACK 91 AUDIO
    TITLE "2:cjc105_6310"
    INDEX 01 01:32:74
  TRACK 92 AUDIO
    TITLE "3:cjc105_6311"
    INDEX 01 01:33:72
  TRACK 93 AUDIO
    TITLE "0:"
    INDEX 01 01:35:02
  TRACK 94 AUDIO
    TITLE "2:cjc105_6312"
    INDEX 01 01:35:24
  TRACK 95 AUDIO
    TITLE "3:cjc105_6313"
    INDEX 01 01:36:39
  TRACK 96 AUDIO
    TITLE "0:"
    INDEX 01 01:37:50
  TRACK 97 AUDIO
    TITLE "2:cjc105_6314"
    INDEX 01 01:37:71
  TRACK 98 AUDIO
    TITLE "3:cjc105_6315"
    INDEX 01 01:39:35
  TRACK 99 AUDIO
    TITLE "0:"
    INDEX 01 01:40:60
  TRACK 100 AUDIO
    TITLE "2:cjc105_6316"
    INDEX 01 01:41:01
  TRACK 101 AUDIO
    TITLE "3:cjc105_6317"
    INDEX 01 01:42:69
  TRACK 102 AUDIO
    TITLE "0:"
    INDEX 01 01:44:32
  TRACK 103 AUDIO
    TITLE "2:cjc105_6318"
    INDEX 01 01:44:50
  TRACK 104 AUDIO
    TITLE "3:cjc105_6319"
    INDEX 01 01:45:71
  TRACK 105 AUDIO
    TITLE "0:"
    INDEX 01 01:47:42
  TRACK 106 AUDIO
    TITLE "2:cjc105_6320"
    INDEX 01 01:47:64
  TRACK 107 AUDIO
    TITLE "3:cjc105_6321"
    INDEX 01 01:49:00
  TRACK 108 AUDIO
    TITLE "0:"
    INDEX 01 01:50:04
  TRACK 109 AUDIO
    TITLE "2:cjc105_6322"
    INDEX 01 01:50:23
  TRACK 110 AUDIO
    TITLE "3:cjc105_6323"
    INDEX 01 01:51:44
  TRACK 111 AUDIO
    TITLE "0:"
    INDEX 01 01:52:57
  TRACK 112 AUDIO
    TITLE "2:cjc105_6324"
    INDEX 01 01:53:08
  TRACK 113 AUDIO
    TITLE "3:cjc105_6325"
    INDEX 01 01:54:66
  TRACK 114 AUDIO
    TITLE "0:"
    INDEX 01 01:56:39
  TRACK 115 AUDIO
    TITLE "2:cjc105_6326"
    INDEX 01 01:56:57
  TRACK 116 AUDIO
    TITLE "3:cjc105_6327"
    INDEX 01 01:57:70
  TRACK 117 AUDIO
    TITLE "0:"
    INDEX 01 01:58:72
  TRACK 118 AUDIO
    TITLE "2:cjc105_6328"
    INDEX 01 01:59:16
  TRACK 119 AUDIO
    TITLE "3:cjc105_6329"
    INDEX 01 02:01:03
  TRACK 120 AUDIO
    TITLE "0:"
    INDEX 01 02:02:20
  TRACK 121 AUDIO
    TITLE "2:cjc105_6330"
    INDEX 01 02:02:42
  TRACK 122 AUDIO
    TITLE "3:cjc105_6331"
    INDEX 01 02:04:02
  TRACK 123 AUDIO
    TITLE "0:"
    INDEX 01 02:05:11
  TRACK 124 AUDIO
    TITLE "2:cjc105_6332"
    INDEX 01 02:05:29
  TRACK 125 AUDIO
    TITLE "3:cjc105_6333"
    INDEX 01 02:07:24
  TRACK 126 AUDIO
    TITLE "0:"
    INDEX 01 02:08:29
  TRACK 127 AUDIO
    TITLE "2:cjc105_6334"
    INDEX 01 02:08:54
  TRACK 128 AUDIO
    TITLE "3:cjc105_6335"
    INDEX 01 02:10:06
  TRACK 129 AUDIO
    TITLE "0:"
    INDEX 01 02:11:33
  TRACK 130 AUDIO
    TITLE "2:cjc105_6336"
    INDEX 01 02:11:49
  TRACK 131 AUDIO
    TITLE "3:cjc105_6337"
    INDEX 01 02:12:56
  TRACK 132 AUDIO
    TITLE "0:"
    INDEX 01 02:14:12
